PathFileType	4	(X/Y/Z)	Walk9.trc
DataRate	CameraRate	NumFrames	NumMarkers	Units	OrigDataRate	OrigDataStartFrame	OrigNumFrames
200.000000	200.000000	4	59	mm	200.000000	561	603
Frame#	Times		LFHD		RFHD		RASI		RACR1		RUA1		RFA1		RWRR		RCAR		LACR1		LUA1		LElbow		LWRU		RTH2		RMT5		LTH3		LLFC		LTB1		LMT1		LTB4		LMT5		RLFC		LTB2		CLAV		LTB3		LToe		STRN		LFA1		LTH2		LTH4		LLMAL		RBHD		RTH3		LASI		LTH1		RMT1		RBack		RElbowM		C7		LPSI		LCAR		LBHD		RToe		RPSI		RCAL		RElbow		RTH4		RLMAL		RTH1		RTB2		RTB3		RTB4		LWRR		RTB1		RMMAL		LMMAL		T10		RWRU		LCAL		LElbowM
			X1	Y1	Z1	X2	Y2	Z2	X3	Y3	Z3	X4	Y4	Z4	X5	Y5	Z5	X6	Y6	Z6	X7	Y7	Z7	X8	Y8	Z8	X9	Y9	Z9	X10	Y10	Z10	X11	Y11	Z11	X12	Y12	Z12	X13	Y13	Z13	X14	Y14	Z14	X15	Y15	Z15	X16	Y16	Z16	X17	Y17	Z17	X18	Y18	Z18	X19	Y19	Z19	X20	Y20	Z20	X21	Y21	Z21	X22	Y22	Z22	X23	Y23	Z23	X24	Y24	Z24	X25	Y25	Z25	X26	Y26	Z26	X27	Y27	Z27	X28	Y28	Z28	X29	Y29	Z29	X30	Y30	Z30	X31	Y31	Z31	X32	Y32	Z32	X33	Y33	Z33	X34	Y34	Z34	X35	Y35	Z35	X36	Y36	Z36	X37	Y37	Z37	X38	Y38	Z38	X39	Y39	Z39	X40	Y40	Z40	X41	Y41	Z41	X42	Y42	Z42	X43	Y43	Z43	X44	Y44	Z44	X45	Y45	Z45	X46	Y46	Z46	X47	Y47	Z47	X48	Y48	Z48	X49	Y49	Z49	X50	Y50	Z50	X51	Y51	Z51	X52	Y52	Z52	X53	Y53	Z53	X54	Y54	Z54	X55	Y55	Z55	X56	Y56	Z56	X57	Y57	Z57	X58	Y58	Z58	X59	Y59	Z59

561	2.805	937.08	1565.8	-55.418	933.32	1565.6	42.725	854.32	971.67	186.71	773.39	1383.7	160.97	721.2	1246.5	251.52	721.69	950.01	297.41	693.77	848.88	331.19	718.85	786.25	308.79	811.66	1355.8	-195.28	801.81	1207.1	-270.6	752.88	1064.4	-308.8	812.09	829.07	-361.14	894.63	667.55	221.31	809.9	47.205	208.03	812.74	559.97	-152.8	776.77	488.35	-143.96	784.68	334.5	-39.194	852.11	36.139	-25.743	771.45	249.96	-45.338	838.22	25.993	-116.99	871.9	481.9	217.56	777.11	253.94	-108.22	865.57	1340.5	-11.282	764.85	164.53	-48.543	895.94	31.049	-25.536	927.66	1224.7	6.8898	819.87	947.79	-330.67	875.68	643.79	-144.26	827.5	642.11	-179.81	721.05	69.42	-110.92	763.68	1582.3	44.402	857.2	568.84	221.67	882.06	959.65	-171.72	847.07	720.61	-207.3	841.71	46.678	128.35	641.12	1320.2	75.172	637.22	1072.6	199.28	707.81	1419.4	-16.596	642.02	983.12	-106.79	857.78	789.62	-359.93	785.99	1569	-88.723	878.78	36.799	146.71	618.1	981.04	25.391	661.93	101.86	123.36	670.53	1084.9	285.49	836.63	653.29	229.89	713.85	122.16	179.65	826.29	736.89	243.04	829.9	301.66	203.43	813.18	213.9	142.9	852.11	288.94	145.78	868.87	837.76	-309.51	901.87	360.13	150.49	752.26	123.18	102.98	727.52	73.234	-27.81	652.91	1087.8	-21.692	727.5	842.6	266.12	663.41	30.211	-73.859	730.87	1028.2	-209.24
562	2.81	941.29	1565.4	-55.2	937.47	1565.1	42.952	858.43	971.54	186.72	777.39	1383.2	161	724.95	1246	251.33	724.8	949.58	297.41	696.64	848.55	331.17	721.63	785.92	308.97	816.3	1355.4	-195.06	806.69	1207	-270.82	758.84	1063.9	-309.13	821.31	829.47	-361.17	899.9	667.82	220.96	826.44	45.883	209.8	814.55	559.77	-152.65	777.89	488.3	-143.93	785.11	334.42	-39.041	852.13	36.134	-25.757	771.83	249.91	-45.288	838.23	25.999	-117.02	878.34	481.77	217.14	777.6	253.92	-108.19	869.66	1339.9	-10.998	765.1	164.5	-48.522	896.03	31.027	-25.587	931.53	1224	7.8146	827.4	948.22	-330.69	878.39	642.85	-143.46	830.53	641.76	-179.44	721.11	69.462	-110.85	767.81	1581.8	44.52	863.06	568.88	221.41	885.76	959.2	-171.81	851.26	720.03	-206.67	858.53	45.819	130.31	645.15	1319.9	74.943	640.73	1072.3	199.15	711.98	1419.1	-16.725	645.8	982.77	-106.6	867.52	790.58	-359.73	790.21	1568.6	-88.596	895.79	36.966	148.78	621.91	980.71	25.516	677.27	96.235	124.51	673.95	1084.6	285.35	842.01	653.2	229.78	728.58	118.09	180.8	831.11	736.77	242.96	840.36	300.53	203.63	825.63	212.22	143.45	862.68	288.21	145.95	875.88	837.86	-308.21	910.57	360.59	150.22	767.09	119.7	104.22	727.61	73.189	-27.759	656.78	1087.5	-21.858	730.39	842.25	266.1	663.4	30.23	-73.761	736.83	1027.6	-209.69
563	2.815	945.5	1564.9	-54.953	941.62	1564.6	43.204	862.57	971.36	186.72	781.36	1382.7	161.08	728.71	1245.4	251.15	727.95	949.14	297.45	699.56	848.19	331.18	724.47	785.58	309.19	820.94	1355.1	-194.82	811.61	1206.8	-271.01	764.78	1063.5	-309.44	830.49	829.89	-361.14	905.09	668.01	220.58	843.1	44.685	211.63	816.34	559.57	-152.53	779.05	488.26	-143.89	785.61	334.34	-38.887	852.14	36.131	-25.768	772.24	249.86	-45.234	838.24	25.998	-117.05	884.63	481.58	216.68	778.12	253.88	-108.13	873.75	1339.4	-10.677	765.37	164.46	-48.494	896.11	31.002	-25.635	935.39	1223.4	8.7503	834.91	948.65	-330.68	881.07	641.91	-142.75	833.49	641.41	-179.1	721.18	69.508	-110.8	771.94	1581.3	44.666	868.81	568.87	221.12	889.44	958.76	-171.88	855.32	719.46	-206.06	875.46	45.092	132.31	649.18	1319.6	74.742	644.26	1072	199.05	716.16	1418.7	-16.824	649.57	982.4	-106.34	877.2	791.56	-359.46	794.43	1568.1	-88.44	912.87	37.283	150.91	625.72	980.33	25.698	692.84	90.708	125.75	677.38	1084.2	285.24	847.32	653.07	229.67	743.5	114.11	182.03	835.9	736.6	242.9	850.82	299.42	203.82	838.15	210.58	144.04	873.24	287.5	146.12	882.92	838.03	-306.9	919.19	361.05	149.92	782.08	116.31	105.53	727.71	73.152	-27.712	660.63	1087.2	-21.981	733.28	841.89	266.06	663.4	30.253	-73.676	742.82	1027	-210.11
564	2.82	949.71	1564.4	-54.677	945.77	1564.1	43.484	866.73	971.14	186.71	785.33	1382.2	161.19	732.49	1244.8	250.98	731.14	948.67	297.53	702.54	847.8	331.23	727.39	785.22	309.46	825.59	1354.7	-194.55	816.58	1206.6	-271.17	770.71	1063	-309.72	839.63	830.32	-361.05	910.2	668.13	220.19	859.87	43.631	213.49	818.15	559.36	-152.44	780.29	488.22	-143.84	786.18	334.26	-38.737	852.14	36.128	-25.778	772.67	249.82	-45.173	838.24	25.99	-117.07	890.76	481.34	216.19	778.69	253.84	-108.07	877.83	1338.8	-10.322	765.64	164.42	-48.459	896.2	30.973	-25.681	939.22	1222.7	9.6885	842.4	949.08	-330.64	883.72	640.99	-142.13	836.4	641.06	-178.79	721.25	69.558	-110.75	776.07	1580.7	44.837	874.43	568.8	220.82	893.12	958.33	-171.95	859.25	718.89	-205.5	892.49	44.521	134.32	653.2	1319.3	74.571	647.82	1071.7	199	720.34	1418.3	-16.889	653.32	982.01	-106.02	886.82	792.55	-359.12	798.66	1567.7	-88.255	930.01	37.771	153.05	629.52	979.89	25.937	708.63	85.301	127.07	680.84	1083.8	285.17	852.55	652.9	229.55	758.6	110.22	183.33	840.65	736.39	242.84	861.27	298.34	204	850.73	209.02	144.67	883.79	286.83	146.3	890.02	838.28	-305.61	927.72	361.53	149.61	797.21	113.01	106.89	727.81	73.129	-27.669	664.49	1086.8	-22.058	736.17	841.49	266.02	663.39	30.281	-73.605	748.81	1026.3	-210.5
